<svg xmlns="http://www.w3.org/2000/svg" xmlns:xlink="http://www.w3.org/1999/xlink" width="100" zoomAndPan="magnify" viewBox="0 0 75 74.999997" height="100" preserveAspectRatio="xMidYMid meet" version="1.0"><path d="M 2.5 40 L 35 40 L 35 72.5 C 35 73.878906 36.117188 75 37.5 75 C 38.882812 75 40 73.878906 40 72.5 L 40 40 L 72.5 40 C 73.882812 40 75 38.878906 75 37.5 C 75 36.121094 73.882812 35 72.5 35 L 40 35 L 40 2.5 C 40 1.121094 38.882812 0 37.5 0 C 36.117188 0 35 1.121094 35 2.5 L 35 35 L 2.5 35 C 1.117188 35 0 36.121094 0 37.5 C 0 38.878906 1.117188 40 2.5 40 Z M 2.5 40 " fill-opacity="1" fill-rule="nonzero"/></svg>