<svg xmlns="http://www.w3.org/2000/svg" xmlns:xlink="http://www.w3.org/1999/xlink" width="100" zoomAndPan="magnify" viewBox="0 0 75 74.999997" height="100" preserveAspectRatio="xMidYMid meet" version="1.0"><defs><clipPath id="4a128bb761"><path d="M 0 8 L 74 8 L 74 68.109375 L 0 68.109375 Z M 0 8 " clip-rule="nonzero"/></clipPath></defs><g clip-path="url(#4a128bb761)"><path d="M 67.664062 13.898438 C 60.332031 6.601562 48.40625 6.601562 41.070312 13.898438 L 36.574219 18.378906 L 32.070312 13.898438 C 28.535156 10.378906 23.8125 8.4375 18.777344 8.4375 C 13.738281 8.4375 9.019531 10.378906 5.484375 13.898438 C 1.945312 17.421875 -0.00390625 22.121094 -0.00390625 27.132812 C -0.00390625 32.140625 1.945312 36.84375 5.484375 40.363281 L 10.007812 44.867188 C 10.035156 44.898438 10.0625 44.929688 10.09375 44.957031 C 10.097656 44.957031 10.101562 44.960938 10.101562 44.964844 L 28.628906 63.40625 C 28.628906 63.40625 28.632812 63.410156 28.632812 63.410156 L 31.082031 65.847656 C 32.59375 67.355469 34.582031 68.109375 36.574219 68.109375 C 38.5625 68.109375 40.550781 67.355469 42.066406 65.847656 L 44.515625 63.410156 L 49.980469 57.96875 L 49.984375 57.964844 L 67.667969 40.363281 C 74.992188 33.070312 74.992188 21.199219 67.664062 13.898438 Z M 26.703125 32.835938 C 24.746094 32.835938 23.15625 31.25 23.15625 29.304688 C 23.15625 27.355469 24.746094 25.773438 26.703125 25.773438 C 28.660156 25.773438 30.25 27.355469 30.25 29.304688 C 30.25 31.25 28.660156 32.835938 26.703125 32.835938 Z M 25.007812 35.109375 L 28.398438 35.109375 C 30.765625 35.109375 32.695312 36.703125 32.695312 38.664062 L 32.695312 41.667969 C 31.496094 42.734375 30.742188 44.277344 30.742188 46 C 30.742188 47.539062 31.347656 48.941406 32.335938 49.980469 C 29.964844 50.863281 28.296875 52.941406 28.296875 55.359375 L 28.296875 59.863281 L 25.113281 56.695312 L 25.113281 47.015625 C 25.113281 44.597656 23.445312 42.519531 21.074219 41.636719 C 22.0625 40.59375 22.671875 39.195312 22.671875 37.652344 C 22.671875 37.027344 22.570312 36.425781 22.386719 35.863281 C 23.136719 35.378906 24.054688 35.109375 25.007812 35.109375 Z M 46.441406 32.835938 C 44.484375 32.835938 42.890625 31.25 42.890625 29.304688 C 42.890625 27.355469 44.484375 25.773438 46.441406 25.773438 C 48.394531 25.773438 49.988281 27.355469 49.988281 29.304688 C 49.988281 31.25 48.394531 32.835938 46.441406 32.835938 Z M 44.742188 35.109375 L 48.140625 35.109375 C 49.09375 35.109375 50.015625 35.378906 50.761719 35.863281 C 50.578125 36.429688 50.480469 37.03125 50.480469 37.652344 C 50.480469 39.195312 51.085938 40.597656 52.074219 41.636719 C 49.703125 42.519531 48.03125 44.597656 48.03125 47.015625 L 48.03125 56.695312 L 44.851562 59.867188 L 44.851562 55.363281 C 44.851562 52.945312 43.179688 50.867188 40.8125 49.984375 C 41.800781 48.941406 42.40625 47.542969 42.40625 46 C 42.40625 44.277344 41.652344 42.730469 40.453125 41.667969 L 40.453125 38.664062 C 40.449219 36.703125 42.375 35.109375 44.742188 35.109375 Z M 54.609375 43.457031 L 58.007812 43.457031 C 58.960938 43.457031 59.859375 43.71875 60.597656 44.183594 L 50.316406 54.417969 L 50.316406 47.011719 C 50.316406 45.054688 52.242188 43.457031 54.609375 43.457031 Z M 56.308594 41.183594 C 54.355469 41.183594 52.761719 39.597656 52.761719 37.652344 C 52.761719 35.707031 54.355469 34.121094 56.308594 34.121094 C 58.265625 34.121094 59.859375 35.707031 59.859375 37.652344 C 59.859375 39.597656 58.269531 41.183594 56.308594 41.183594 Z M 40.121094 46 C 40.121094 47.945312 38.53125 49.53125 36.574219 49.53125 C 34.617188 49.53125 33.027344 47.945312 33.027344 46 C 33.027344 44.050781 34.617188 42.46875 36.574219 42.46875 C 38.53125 42.46875 40.121094 44.050781 40.121094 46 Z M 20.386719 37.652344 C 20.386719 39.597656 18.792969 41.183594 16.839844 41.183594 C 14.878906 41.183594 13.285156 39.597656 13.285156 37.652344 C 13.285156 35.707031 14.878906 34.121094 16.839844 34.121094 C 18.792969 34.121094 20.386719 35.707031 20.386719 37.652344 Z M 15.136719 43.457031 L 18.535156 43.457031 C 20.902344 43.457031 22.828125 45.050781 22.828125 47.015625 L 22.828125 54.417969 L 12.550781 44.1875 C 13.289062 43.71875 14.1875 43.457031 15.136719 43.457031 Z M 40.449219 64.242188 C 38.3125 66.371094 34.832031 66.371094 32.695312 64.242188 L 30.582031 62.136719 L 30.582031 55.359375 C 30.582031 53.398438 32.507812 51.804688 34.875 51.804688 L 38.273438 51.804688 C 40.640625 51.804688 42.566406 53.398438 42.566406 55.359375 L 42.566406 62.136719 Z M 62.238281 42.554688 C 61.726562 42.171875 61.15625 41.863281 60.546875 41.636719 C 61.535156 40.59375 62.140625 39.195312 62.140625 37.652344 C 62.140625 34.449219 59.527344 31.847656 56.308594 31.847656 C 54.539062 31.847656 52.953125 32.636719 51.882812 33.878906 C 51.503906 33.644531 51.097656 33.449219 50.671875 33.289062 C 51.664062 32.25 52.273438 30.84375 52.273438 29.300781 C 52.273438 26.101562 49.65625 23.496094 46.441406 23.496094 C 43.222656 23.496094 40.609375 26.101562 40.609375 29.300781 C 40.609375 30.84375 41.214844 32.246094 42.203125 33.285156 C 39.835938 34.167969 38.164062 36.246094 38.164062 38.664062 L 38.164062 40.414062 C 37.660156 40.269531 37.125 40.191406 36.574219 40.191406 C 36.019531 40.191406 35.484375 40.269531 34.976562 40.414062 L 34.976562 38.664062 C 34.976562 36.246094 33.308594 34.167969 30.941406 33.285156 C 31.929688 32.246094 32.535156 30.84375 32.535156 29.300781 C 32.535156 26.101562 29.921875 23.496094 26.703125 23.496094 C 23.488281 23.496094 20.871094 26.101562 20.871094 29.300781 C 20.871094 30.84375 21.480469 32.25 22.472656 33.292969 C 22.050781 33.449219 21.644531 33.644531 21.265625 33.878906 C 20.195312 32.636719 18.605469 31.847656 16.839844 31.847656 C 13.621094 31.847656 11 34.449219 11 37.652344 C 11 39.195312 11.609375 40.59375 12.597656 41.636719 C 11.988281 41.863281 11.421875 42.171875 10.910156 42.554688 L 7.097656 38.761719 C 3.992188 35.667969 2.28125 31.539062 2.28125 27.132812 C 2.28125 22.730469 3.992188 18.601562 7.097656 15.507812 C 10.203125 12.417969 14.351562 10.714844 18.777344 10.714844 C 23.203125 10.714844 27.351562 12.417969 30.457031 15.507812 L 35.765625 20.789062 C 36.210938 21.234375 36.9375 21.234375 37.382812 20.789062 L 42.6875 15.507812 C 49.128906 9.097656 59.609375 9.097656 66.046875 15.507812 C 72.484375 21.917969 72.484375 32.351562 66.046875 38.761719 Z M 62.238281 42.554688 " fill-opacity="1" fill-rule="nonzero"/></g></svg>