<svg xmlns="http://www.w3.org/2000/svg" xmlns:xlink="http://www.w3.org/1999/xlink" width="100" zoomAndPan="magnify" viewBox="0 0 75 74.999997" height="100" preserveAspectRatio="xMidYMid meet" version="1.0"><defs><clipPath id="7c61252268"><path d="M 0 6 L 75 6 L 75 69 L 0 69 Z M 0 6 " clip-rule="nonzero"/></clipPath></defs><g clip-path="url(#7c61252268)"><path d="M 43.203125 67.34375 L 43.203125 52.015625 L 30 52.015625 L 30 67.34375 C 30 67.5625 29.957031 67.773438 29.875 67.980469 C 29.789062 68.183594 29.667969 68.363281 29.515625 68.519531 C 29.359375 68.675781 29.179688 68.792969 28.976562 68.878906 C 28.773438 68.964844 28.5625 69.007812 28.339844 69.007812 L 10.894531 69.007812 C 10.675781 69.007812 10.460938 68.964844 10.257812 68.878906 C 10.054688 68.796875 9.875 68.675781 9.71875 68.519531 C 9.5625 68.363281 9.441406 68.183594 9.359375 67.980469 C 9.273438 67.777344 9.230469 67.566406 9.230469 67.34375 L 9.230469 37.175781 C 9.230469 37.011719 9.261719 36.855469 9.324219 36.703125 C 9.386719 36.554688 9.476562 36.421875 9.589844 36.304688 C 9.707031 36.191406 9.839844 36.101562 9.992188 36.039062 C 10.140625 35.976562 10.296875 35.945312 10.460938 35.945312 C 10.625 35.945312 10.78125 35.976562 10.929688 36.039062 C 11.082031 36.101562 11.214844 36.191406 11.328125 36.304688 C 11.445312 36.421875 11.535156 36.554688 11.597656 36.703125 C 11.660156 36.855469 11.691406 37.011719 11.691406 37.175781 L 11.691406 66.546875 L 27.539062 66.546875 L 27.539062 51.21875 C 27.542969 51 27.582031 50.789062 27.667969 50.582031 C 27.753906 50.378906 27.871094 50.199219 28.027344 50.042969 C 28.183594 49.890625 28.363281 49.769531 28.566406 49.683594 C 28.769531 49.601562 28.984375 49.558594 29.203125 49.558594 L 44.007812 49.558594 C 44.226562 49.558594 44.441406 49.601562 44.644531 49.683594 C 44.847656 49.769531 45.027344 49.890625 45.183594 50.042969 C 45.339844 50.199219 45.460938 50.378906 45.542969 50.582031 C 45.628906 50.789062 45.671875 51 45.671875 51.21875 L 45.671875 66.546875 L 61.523438 66.546875 L 61.523438 37.175781 C 61.523438 37.011719 61.554688 36.855469 61.613281 36.703125 C 61.675781 36.554688 61.765625 36.421875 61.882812 36.304688 C 61.996094 36.191406 62.128906 36.101562 62.28125 36.039062 C 62.429688 35.976562 62.585938 35.945312 62.75 35.945312 C 62.914062 35.945312 63.070312 35.976562 63.222656 36.039062 C 63.371094 36.101562 63.503906 36.191406 63.621094 36.304688 C 63.734375 36.421875 63.824219 36.554688 63.886719 36.703125 C 63.949219 36.855469 63.980469 37.011719 63.980469 37.175781 L 63.980469 67.34375 C 63.980469 67.566406 63.9375 67.777344 63.851562 67.980469 C 63.769531 68.183594 63.648438 68.363281 63.492188 68.519531 C 63.335938 68.675781 63.15625 68.796875 62.953125 68.878906 C 62.75 68.964844 62.539062 69.007812 62.316406 69.007812 L 44.871094 69.007812 C 44.648438 69.007812 44.4375 68.964844 44.234375 68.882812 C 44.027344 68.796875 43.847656 68.675781 43.691406 68.519531 C 43.535156 68.363281 43.417969 68.183594 43.332031 67.980469 C 43.246094 67.777344 43.203125 67.566406 43.203125 67.34375 Z M 72.828125 38.371094 C 72.953125 38.492188 73.09375 38.585938 73.253906 38.648438 C 73.414062 38.710938 73.582031 38.738281 73.753906 38.730469 C 73.925781 38.722656 74.089844 38.679688 74.246094 38.601562 C 74.398438 38.527344 74.53125 38.421875 74.644531 38.289062 C 74.753906 38.15625 74.832031 38.007812 74.882812 37.839844 C 74.929688 37.675781 74.941406 37.507812 74.917969 37.335938 C 74.894531 37.164062 74.835938 37.003906 74.746094 36.859375 C 74.65625 36.710938 74.539062 36.589844 74.398438 36.492188 L 38.527344 6.523438 C 38.21875 6.265625 37.863281 6.136719 37.460938 6.136719 C 37.058594 6.136719 36.703125 6.265625 36.394531 6.523438 L 0.527344 36.492188 C 0.402344 36.59375 0.300781 36.71875 0.226562 36.863281 C 0.148438 37.007812 0.105469 37.160156 0.0898438 37.324219 C 0.0742188 37.488281 0.09375 37.644531 0.140625 37.800781 C 0.191406 37.957031 0.265625 38.097656 0.371094 38.222656 C 0.476562 38.347656 0.601562 38.449219 0.746094 38.523438 C 0.890625 38.597656 1.042969 38.644531 1.203125 38.660156 C 1.367188 38.671875 1.527344 38.65625 1.683594 38.609375 C 1.835938 38.558594 1.976562 38.480469 2.101562 38.378906 L 37.460938 8.832031 Z M 49.214844 10.152344 L 58.527344 10.152344 L 58.527344 19.460938 C 58.527344 19.625 58.558594 19.78125 58.621094 19.933594 C 58.683594 20.082031 58.769531 20.214844 58.886719 20.332031 C 59 20.445312 59.132812 20.535156 59.285156 20.597656 C 59.4375 20.660156 59.59375 20.691406 59.753906 20.691406 C 59.917969 20.691406 60.074219 20.660156 60.226562 20.597656 C 60.375 20.535156 60.507812 20.445312 60.625 20.332031 C 60.738281 20.214844 60.828125 20.082031 60.890625 19.933594 C 60.953125 19.78125 60.984375 19.625 60.984375 19.460938 L 60.984375 9.355469 C 60.984375 9.136719 60.941406 8.921875 60.859375 8.71875 C 60.773438 8.515625 60.652344 8.335938 60.496094 8.179688 C 60.339844 8.023438 60.160156 7.902344 59.957031 7.820312 C 59.753906 7.734375 59.542969 7.691406 59.320312 7.691406 L 49.214844 7.691406 C 49.050781 7.691406 48.894531 7.722656 48.746094 7.785156 C 48.59375 7.847656 48.460938 7.9375 48.34375 8.050781 C 48.230469 8.167969 48.140625 8.300781 48.078125 8.453125 C 48.015625 8.601562 47.984375 8.757812 47.984375 8.921875 C 47.984375 9.085938 48.015625 9.242188 48.078125 9.390625 C 48.140625 9.542969 48.230469 9.675781 48.34375 9.792969 C 48.460938 9.90625 48.59375 9.996094 48.746094 10.058594 C 48.894531 10.121094 49.050781 10.152344 49.214844 10.152344 Z M 49.214844 10.152344 " fill-opacity="1" fill-rule="nonzero"/></g></svg>