<svg xmlns="http://www.w3.org/2000/svg" xmlns:xlink="http://www.w3.org/1999/xlink" width="100" zoomAndPan="magnify" viewBox="0 0 75 74.999997" height="100" preserveAspectRatio="xMidYMid meet" version="1.0"><path d="M 37.5 0 C 16.816406 0 0 16.816406 0 37.5 C 0 58.183594 16.816406 75 37.5 75 C 58.183594 75 75 58.183594 75 37.5 C 75 16.816406 58.183594 0 37.5 0 Z M 58.574219 41.128906 L 41.128906 41.128906 L 41.128906 58.574219 C 41.128906 60.554688 39.507812 62.203125 37.5 62.203125 C 35.492188 62.203125 33.871094 60.554688 33.871094 58.574219 L 33.871094 41.128906 L 16.425781 41.128906 C 14.445312 41.128906 12.796875 39.507812 12.796875 37.5 C 12.796875 35.492188 14.445312 33.871094 16.425781 33.871094 L 33.871094 33.871094 L 33.871094 16.425781 C 33.871094 14.445312 35.492188 12.796875 37.5 12.796875 C 39.507812 12.796875 41.128906 14.445312 41.128906 16.425781 L 41.128906 33.871094 L 58.574219 33.871094 C 60.554688 33.871094 62.203125 35.492188 62.203125 37.5 C 62.203125 39.507812 60.554688 41.128906 58.574219 41.128906 Z M 58.574219 41.128906 " fill-opacity="1" fill-rule="nonzero"/></svg>