<svg xmlns="http://www.w3.org/2000/svg" xmlns:xlink="http://www.w3.org/1999/xlink" width="100" zoomAndPan="magnify" viewBox="0 0 75 74.999997" height="100" preserveAspectRatio="xMidYMid meet" version="1.0"><defs><clipPath id="126740df49"><path d="M 7.03125 0 L 67.78125 0 L 67.78125 75 L 7.03125 75 Z M 7.03125 0 " clip-rule="nonzero"/></clipPath></defs><g clip-path="url(#126740df49)"><path d="M 67.355469 27.367188 C 67.28125 24.453125 66.820312 21.605469 65.996094 18.902344 C 64.261719 13.21875 61 8.417969 56.558594 5.039062 C 51.980469 1.546875 46.972656 0 40.332031 0 C 36.832031 0 33.390625 0.539062 30.128906 1.605469 C 26.882812 2.671875 23.9375 4.199219 21.394531 6.152344 C 19.839844 7.351562 18.449219 8.703125 17.25 10.15625 C 16.027344 11.65625 15.023438 13.292969 14.261719 15.003906 C 13.46875 16.773438 12.914062 18.648438 12.644531 20.585938 C 12.359375 22.59375 12.359375 24.664062 12.644531 26.78125 C 12.703125 27.214844 12.78125 27.621094 12.855469 27.996094 C 13.109375 29.375 13.289062 30.292969 12.4375 31.519531 C 11.925781 32.257812 10.609375 34.402344 9.382812 36.667969 C 8.726562 37.898438 8.1875 38.949219 7.8125 39.816406 C 7.140625 41.304688 7.066406 41.902344 7.066406 42.21875 C 7.066406 42.21875 7.066406 42.234375 7.066406 42.234375 C 7.097656 43.3125 7.621094 44.167969 8.578125 44.695312 C 9.308594 45.097656 10.148438 45.25 10.835938 45.367188 C 11.089844 45.414062 11.417969 45.472656 11.539062 45.519531 C 11.898438 45.804688 11.972656 46.058594 11.523438 46.855469 C 11.058594 47.679688 10.925781 48.398438 11.089844 49.074219 C 11.238281 49.644531 11.566406 50.019531 11.808594 50.273438 C 11.417969 51.070312 11.300781 51.683594 11.433594 52.226562 C 11.582031 52.855469 12.03125 53.246094 12.464844 53.621094 C 12.628906 53.753906 12.792969 53.90625 12.960938 54.070312 C 13.199219 54.3125 13.199219 54.3125 12.929688 54.925781 L 12.898438 54.984375 C 11.734375 57.492188 11.914062 60.148438 13.363281 62.097656 C 14.035156 62.996094 14.933594 63.6875 15.996094 64.109375 C 17.085938 64.542969 18.328125 64.679688 19.601562 64.484375 C 20.09375 64.40625 20.585938 64.316406 21.082031 64.242188 C 23.28125 63.867188 25.554688 63.460938 27.214844 64.273438 C 27.902344 64.601562 28.214844 65.578125 28.140625 67.167969 C 28.066406 68.742188 27.632812 70.617188 27.273438 72.121094 C 27.078125 72.929688 26.929688 73.621094 26.839844 74.160156 C 26.808594 74.371094 26.871094 74.59375 27.003906 74.746094 C 27.136719 74.910156 27.347656 75 27.558594 75 L 61.40625 75 C 61.644531 75 61.867188 74.878906 62.003906 74.683594 C 62.136719 74.488281 62.167969 74.234375 62.09375 74.011719 C 61.761719 73.09375 61.40625 72.179688 61.015625 71.203125 C 60.011719 68.625 58.964844 65.96875 58.308594 63.164062 C 57.140625 58.242188 57.484375 54.671875 59.414062 51.609375 C 59.414062 51.59375 59.429688 51.59375 59.429688 51.582031 C 59.609375 51.25 59.804688 50.921875 59.984375 50.589844 C 61.269531 48.339844 62.585938 46 63.707031 43.628906 C 64.980469 40.957031 65.875 38.46875 66.445312 36.023438 C 67.132812 33.1875 67.433594 30.277344 67.355469 27.367188 Z M 65.039062 35.707031 C 63.8125 40.914062 61.34375 45.265625 58.726562 49.886719 C 58.546875 50.214844 58.351562 50.53125 58.171875 50.859375 C 56.992188 52.734375 56.347656 54.761719 56.199219 57.054688 C 56.078125 58.960938 56.289062 61.015625 56.886719 63.523438 C 57.574219 66.417969 58.636719 69.132812 59.65625 71.757812 C 59.894531 72.375 60.117188 72.960938 60.34375 73.542969 L 28.453125 73.542969 C 28.53125 73.214844 28.617188 72.855469 28.707031 72.464844 C 29.066406 70.902344 29.53125 68.953125 29.605469 67.242188 C 29.652344 66.253906 29.5625 65.441406 29.351562 64.769531 C 29.066406 63.914062 28.574219 63.296875 27.855469 62.953125 C 25.777344 61.949219 23.265625 62.382812 20.839844 62.800781 C 20.332031 62.890625 19.871094 62.96875 19.390625 63.042969 C 17.386719 63.34375 15.636719 62.683594 14.558594 61.226562 C 13.421875 59.710938 13.316406 57.613281 14.246094 55.601562 L 14.277344 55.542969 C 14.441406 55.167969 14.605469 54.820312 14.621094 54.414062 C 14.632812 53.921875 14.441406 53.46875 14.007812 53.035156 C 13.796875 52.824219 13.601562 52.660156 13.421875 52.511719 C 13.09375 52.226562 12.898438 52.046875 12.855469 51.878906 C 12.808594 51.714844 12.855469 51.371094 13.289062 50.589844 C 13.347656 50.484375 13.378906 50.363281 13.378906 50.230469 C 13.378906 49.796875 13.109375 49.511719 12.898438 49.285156 C 12.527344 48.894531 12.242188 48.578125 12.808594 47.574219 C 13.035156 47.167969 13.273438 46.675781 13.304688 46.121094 C 13.332031 45.640625 13.199219 44.933594 12.421875 44.332031 C 12.121094 44.09375 11.6875 44.019531 11.105469 43.914062 C 9.429688 43.613281 8.578125 43.269531 8.546875 42.1875 C 8.546875 42.007812 8.683594 41.019531 10.671875 37.34375 C 11.882812 35.121094 13.152344 33.035156 13.648438 32.316406 C 14.828125 30.574219 14.574219 29.164062 14.289062 27.679688 C 14.214844 27.320312 14.15625 26.945312 14.097656 26.539062 C 13.0625 18.980469 15.980469 12.152344 22.292969 7.304688 C 27.214844 3.527344 33.613281 1.457031 40.34375 1.457031 C 46.65625 1.457031 51.382812 2.910156 55.691406 6.179688 C 64.066406 12.585938 67.746094 24.167969 65.039062 35.707031 Z M 65.039062 35.707031 " fill-opacity="1" fill-rule="nonzero"/></g><path d="M 54.585938 16.382812 C 53.792969 13.503906 52.402344 11.070312 50.515625 9.300781 C 49.066406 7.953125 47.253906 6.917969 45.117188 6.210938 C 43.292969 5.609375 41.226562 5.265625 38.984375 5.191406 C 37.265625 5.132812 35.664062 5.207031 34.226562 5.460938 C 32.539062 5.746094 31.011719 6.257812 29.667969 6.960938 C 28.214844 7.726562 27.019531 8.792969 26.121094 10.097656 C 25.269531 11.34375 24.699219 12.765625 24.492188 14.253906 C 24.460938 14.523438 24.429688 14.792969 24.417969 15.0625 C 23.789062 15.46875 23.144531 15.964844 22.488281 16.519531 C 21.558594 17.296875 20.886719 18.003906 20.347656 18.722656 C 19.644531 19.667969 19.210938 20.628906 19.0625 21.621094 C 18.867188 22.789062 19.0625 24.003906 19.628906 25.21875 C 20.109375 26.253906 20.855469 27.261719 21.769531 28.117188 C 21.933594 28.28125 22.113281 28.429688 22.292969 28.582031 C 22.425781 30.125 22.980469 31.355469 23.878906 32.152344 C 24.625 32.796875 25.613281 33.140625 26.660156 33.140625 C 27.214844 33.140625 27.78125 33.035156 28.335938 32.839844 C 28.796875 32.675781 29.203125 32.453125 29.578125 32.195312 C 30.457031 32.453125 31.402344 32.648438 32.34375 32.648438 C 32.910156 32.648438 33.496094 32.570312 34.0625 32.40625 C 34.109375 32.675781 34.167969 32.945312 34.226562 33.214844 C 34.675781 35.242188 35.542969 36.757812 36.84375 37.746094 C 37.863281 38.527344 39.117188 38.960938 40.660156 39.097656 C 41.046875 39.128906 41.421875 39.144531 41.796875 39.144531 C 43.742188 39.144531 45.550781 38.707031 47.164062 37.851562 C 48.960938 36.90625 50.5 35.453125 51.710938 33.546875 C 52.085938 32.960938 52.355469 32.390625 52.519531 31.851562 C 53 32.4375 53.507812 32.945312 54.074219 33.398438 C 55.152344 34.238281 56.304688 34.6875 57.382812 34.6875 C 57.664062 34.6875 57.933594 34.65625 58.203125 34.597656 C 59.085938 34.402344 59.878906 33.890625 60.535156 33.082031 C 61.058594 32.453125 61.496094 31.625 61.808594 30.710938 C 62.136719 29.734375 62.347656 28.714844 62.421875 27.664062 C 62.496094 26.617188 62.421875 25.582031 62.226562 24.558594 C 61.808594 22.414062 60.820312 20.539062 59.371094 19.128906 C 58.1875 17.972656 56.691406 17.101562 54.914062 16.519531 C 54.824219 16.457031 54.703125 16.414062 54.585938 16.382812 Z M 53.449219 19.789062 C 53 21.019531 51.070312 21.394531 49.949219 21.5 C 49.871094 21.515625 49.78125 21.515625 49.707031 21.515625 C 49.246094 20.238281 48.734375 19.007812 48.167969 17.855469 C 48.300781 17.613281 48.453125 17.359375 48.570312 17.101562 C 48.976562 17.089844 49.378906 17.101562 49.8125 17.117188 C 50.875 17.164062 52.117188 17.285156 53.359375 17.582031 C 53.550781 18.421875 53.671875 19.160156 53.449219 19.789062 Z M 36.890625 16.609375 C 36.53125 17.164062 36.1875 17.777344 35.859375 18.421875 C 35.605469 18.902344 35.378906 19.382812 35.183594 19.894531 C 34.796875 19.863281 34.40625 19.847656 34.019531 19.820312 C 33.945312 19.820312 33.855469 19.804688 33.777344 19.804688 C 33.867188 18.378906 34.003906 16.894531 34.347656 15.46875 C 35.171875 15.753906 36.007812 16.144531 36.890625 16.609375 Z M 34.78125 14.042969 C 35.140625 13.097656 35.617188 12.210938 36.292969 11.449219 C 37.101562 10.515625 38.429688 9.632812 39.792969 9.886719 C 40.71875 10.050781 41.511719 10.742188 42.199219 11.476562 C 41.496094 11.835938 40.824219 12.273438 40.179688 12.796875 C 39.3125 13.503906 38.503906 14.371094 37.742188 15.378906 C 36.695312 14.839844 35.722656 14.386719 34.78125 14.042969 Z M 36.171875 21.425781 C 37.101562 21.5 38.027344 21.574219 38.953125 21.664062 C 38.9375 22.398438 39.089844 23.121094 39.253906 23.945312 C 39.359375 24.46875 39.476562 25.039062 39.566406 25.671875 C 38.984375 25.609375 38.414062 25.535156 37.847656 25.445312 C 36.964844 25.308594 36.128906 25.144531 35.351562 24.949219 C 35.5 23.734375 35.785156 22.550781 36.171875 21.425781 Z M 39.253906 20.222656 C 38.414062 20.132812 37.578125 20.058594 36.742188 20 C 36.875 19.699219 37.023438 19.398438 37.175781 19.097656 C 37.503906 18.46875 37.832031 17.882812 38.191406 17.328125 C 38.953125 17.777344 39.640625 18.242188 40.285156 18.722656 C 39.808594 19.203125 39.460938 19.699219 39.253906 20.222656 Z M 39.015625 16.113281 C 40.253906 14.492188 41.617188 13.335938 43.171875 12.632812 C 44.007812 13.683594 44.789062 14.792969 45.503906 15.976562 C 43.921875 16.324219 42.558594 16.910156 41.421875 17.734375 C 40.6875 17.179688 39.882812 16.636719 39.015625 16.113281 Z M 44.488281 20.675781 C 44.070312 20.148438 43.589844 19.640625 43.066406 19.144531 C 42.917969 18.992188 42.753906 18.84375 42.589844 18.695312 C 43.605469 18.035156 44.832031 17.570312 46.253906 17.3125 C 46.328125 17.464844 46.417969 17.613281 46.492188 17.761719 C 46.476562 17.777344 46.476562 17.792969 46.460938 17.824219 C 45.863281 18.785156 45.207031 19.730469 44.488281 20.675781 Z M 45.625 26.300781 C 44.429688 26.136719 43.246094 26.03125 42.082031 25.925781 C 42.035156 25.925781 42.003906 25.910156 41.960938 25.910156 C 42.84375 24.980469 43.652344 24.066406 44.398438 23.148438 C 44.636719 23.554688 44.832031 23.976562 44.996094 24.410156 C 45.25 25.070312 45.460938 25.714844 45.625 26.300781 Z M 47.242188 19.339844 C 47.554688 20.058594 47.867188 20.792969 48.152344 21.542969 C 47.332031 21.515625 46.539062 21.425781 45.863281 21.304688 C 46.34375 20.660156 46.804688 20 47.242188 19.339844 Z M 47.628906 15.679688 C 47.433594 15.691406 47.242188 15.707031 47.046875 15.722656 C 46.3125 14.433594 45.503906 13.234375 44.621094 12.09375 C 45.296875 11.914062 46.015625 11.792969 46.746094 11.746094 C 47.089844 11.730469 47.34375 11.730469 47.554688 11.808594 C 48.09375 12.03125 48.273438 12.917969 48.183594 13.699219 C 48.109375 14.386719 47.898438 15.046875 47.628906 15.679688 Z M 42.5 20.644531 C 41.929688 20.554688 41.363281 20.464844 40.808594 20.390625 C 40.957031 20.148438 41.167969 19.894531 41.4375 19.625 C 41.8125 19.96875 42.171875 20.300781 42.5 20.644531 Z M 43.230469 22.265625 C 42.515625 23.121094 41.75 23.988281 40.914062 24.875 C 40.839844 24.441406 40.75 24.035156 40.675781 23.644531 C 40.523438 22.941406 40.40625 22.355469 40.40625 21.828125 C 41.332031 21.949219 42.273438 22.085938 43.230469 22.265625 Z M 41.078125 28.191406 C 41.09375 27.875 41.109375 27.574219 41.109375 27.304688 C 41.378906 27.335938 41.660156 27.367188 41.929688 27.378906 C 43.246094 27.5 44.609375 27.636719 45.9375 27.832031 C 46 28.265625 46.027344 28.6875 46.027344 29.074219 C 46 30.636719 45.429688 31.730469 44.277344 32.40625 C 43.890625 32.632812 43.320312 32.765625 42.785156 32.75 C 42.246094 32.738281 41.796875 32.601562 41.542969 32.347656 C 41.378906 32.179688 41.152344 31.777344 41.078125 30.785156 C 41.019531 29.992188 41.046875 29.03125 41.078125 28.191406 Z M 45.878906 22.804688 C 46.71875 22.941406 47.675781 23.03125 48.675781 23.03125 C 48.824219 23.464844 48.976562 23.929688 49.109375 24.363281 C 49.425781 25.324219 49.738281 26.316406 50.097656 27.277344 C 49.648438 27.09375 49.15625 26.945312 48.585938 26.824219 C 48.121094 26.71875 47.675781 26.628906 47.210938 26.554688 C 47.015625 25.730469 46.746094 24.84375 46.371094 23.898438 C 46.222656 23.507812 46.058594 23.164062 45.878906 22.804688 Z M 30.367188 8.25 C 32.640625 7.035156 35.4375 6.527344 38.9375 6.660156 C 42.09375 6.78125 46.476562 7.53125 49.527344 10.382812 C 51.039062 11.792969 52.207031 13.710938 52.9375 15.992188 C 51.980469 15.8125 50.949219 15.691406 49.871094 15.664062 C 49.648438 15.648438 49.4375 15.648438 49.230469 15.648438 C 49.425781 15.09375 49.574219 14.507812 49.648438 13.90625 C 49.738281 13.246094 49.664062 12.574219 49.484375 12.015625 C 49.230469 11.265625 48.765625 10.742188 48.121094 10.488281 C 47.644531 10.292969 47.152344 10.292969 46.6875 10.308594 C 45.625 10.367188 44.59375 10.5625 43.636719 10.890625 C 42.722656 9.84375 41.585938 8.746094 40.074219 8.460938 C 39.195312 8.296875 38.25 8.433594 37.339844 8.867188 C 36.5625 9.226562 35.8125 9.796875 35.199219 10.515625 C 34.4375 11.386719 33.855469 12.421875 33.40625 13.636719 C 31.519531 13.144531 29.742188 13.066406 28.125 13.441406 C 27.421875 13.609375 26.734375 13.847656 26.015625 14.191406 C 26.449219 11.640625 28.019531 9.511719 30.367188 8.25 Z M 28.441406 14.839844 C 29.816406 14.523438 31.3125 14.582031 32.957031 15.003906 C 32.957031 15.03125 32.941406 15.046875 32.941406 15.078125 C 32.566406 16.625 32.417969 18.242188 32.328125 19.683594 C 31.519531 19.625 30.699219 19.5625 29.875 19.488281 C 29.425781 19.445312 28.976562 19.414062 28.53125 19.414062 C 28.007812 19.414062 27.496094 19.457031 26.972656 19.578125 C 26.316406 18.4375 25.941406 17.164062 25.882812 15.859375 C 26.75 15.378906 27.601562 15.03125 28.441406 14.839844 Z M 32.238281 21.167969 C 32.195312 22.070312 32.132812 22.96875 32.027344 23.855469 C 30.609375 23.226562 29.425781 22.445312 28.453125 21.5 C 28.261719 21.320312 28.09375 21.125 27.917969 20.945312 C 28.5 20.882812 29.113281 20.929688 29.742188 20.988281 C 30.578125 21.050781 31.417969 21.109375 32.238281 21.167969 Z M 23.054688 23.433594 C 22.667969 24.394531 22.410156 25.476562 22.308594 26.570312 C 20.929688 25.101562 20.257812 23.359375 20.511719 21.84375 C 20.796875 20.042969 22.324219 18.589844 23.429688 17.644531 C 23.789062 17.34375 24.132812 17.058594 24.476562 16.804688 C 24.625 17.988281 25.015625 19.128906 25.597656 20.179688 C 24.519531 20.855469 23.652344 21.964844 23.054688 23.433594 Z M 24.851562 31.027344 C 24.476562 30.695312 24.238281 30.277344 24.058594 29.824219 C 25.089844 30.457031 26.257812 31.011719 27.617188 31.519531 C 26.613281 31.820312 25.523438 31.625 24.851562 31.027344 Z M 29.277344 30.546875 C 29.203125 30.515625 29.128906 30.5 29.054688 30.472656 C 26.824219 29.707031 25.105469 28.867188 23.726562 27.832031 C 23.699219 25.746094 24.386719 22.609375 26.40625 21.410156 C 26.71875 21.8125 27.046875 22.1875 27.4375 22.550781 C 28.617188 23.691406 30.070312 24.621094 31.804688 25.355469 C 31.550781 26.734375 31.117188 28.039062 30.382812 29.195312 C 30.128906 29.617188 29.753906 30.109375 29.277344 30.546875 Z M 33.71875 30.964844 C 32.820312 31.234375 31.851562 31.191406 30.890625 30.996094 C 31.191406 30.652344 31.429688 30.304688 31.640625 29.992188 C 32.375 28.835938 32.882812 27.484375 33.210938 25.878906 C 33.390625 25.941406 33.570312 26 33.75 26.046875 C 33.613281 27.652344 33.660156 29.285156 33.855469 30.921875 C 33.808594 30.9375 33.765625 30.953125 33.71875 30.964844 Z M 33.914062 24.558594 C 33.765625 24.515625 33.601562 24.453125 33.449219 24.410156 C 33.585938 23.359375 33.660156 22.308594 33.703125 21.273438 C 33.777344 21.273438 33.855469 21.289062 33.929688 21.289062 C 34.167969 21.304688 34.421875 21.320312 34.660156 21.335938 C 34.332031 22.355469 34.078125 23.433594 33.914062 24.558594 Z M 35.171875 26.421875 C 35.949219 26.601562 36.753906 26.765625 37.609375 26.886719 C 37.980469 26.945312 38.371094 26.992188 38.761719 27.035156 C 38.117188 27.664062 37.429688 28.296875 36.710938 28.941406 C 36.21875 29.375 35.738281 29.8125 35.230469 30.15625 C 35.109375 28.910156 35.09375 27.652344 35.171875 26.421875 Z M 50.5 32.738281 C 48.929688 35.195312 45.984375 38.03125 40.792969 37.613281 C 37.953125 37.371094 36.320312 35.871094 35.679688 32.886719 C 35.605469 32.527344 35.527344 32.152344 35.46875 31.792969 C 36.277344 31.328125 36.996094 30.710938 37.710938 30.050781 C 38.386719 29.449219 39.015625 28.851562 39.628906 28.265625 C 39.550781 30.214844 39.492188 32.375 40.539062 33.398438 C 41.0625 33.90625 41.855469 34.191406 42.769531 34.222656 C 43.574219 34.238281 44.398438 34.042969 45.027344 33.667969 C 45.878906 33.171875 46.523438 32.480469 46.941406 31.640625 C 47.300781 30.90625 47.496094 30.050781 47.507812 29.074219 C 47.507812 28.746094 47.496094 28.414062 47.464844 28.070312 C 47.734375 28.117188 48.003906 28.175781 48.273438 28.234375 C 49.050781 28.414062 49.664062 28.625 50.140625 28.910156 C 50.695312 29.226562 51.023438 29.601562 51.1875 30.050781 C 51.414062 30.757812 51.1875 31.65625 50.5 32.738281 Z M 58.382812 20.164062 C 60.867188 22.578125 61.703125 26.617188 60.460938 30.199219 C 60.191406 30.964844 59.429688 32.796875 57.917969 33.125 C 56.753906 33.382812 55.585938 32.660156 55.003906 32.195312 C 52.550781 30.277344 51.503906 27.035156 50.5 23.898438 C 50.394531 23.585938 50.292969 23.253906 50.1875 22.941406 C 52.683594 22.683594 54.285156 21.769531 54.824219 20.285156 C 55.09375 19.535156 55.0625 18.753906 54.957031 18.0625 C 56.199219 18.527344 57.382812 19.1875 58.382812 20.164062 Z M 58.382812 20.164062 " fill-opacity="1" fill-rule="nonzero"/></svg>