<svg xmlns="http://www.w3.org/2000/svg" xmlns:xlink="http://www.w3.org/1999/xlink" width="100" zoomAndPan="magnify" viewBox="0 0 75 74.999997" height="100" preserveAspectRatio="xMidYMid meet" version="1.0"><defs><clipPath id="4c78cac8ff"><path d="M 0 16.839844 L 75 16.839844 L 75 21 L 0 21 Z M 0 16.839844 " clip-rule="nonzero"/></clipPath><clipPath id="7be881c3d5"><path d="M 0 54 L 75 54 L 75 58.089844 L 0 58.089844 Z M 0 54 " clip-rule="nonzero"/></clipPath></defs><g clip-path="url(#4c78cac8ff)"><path d="M 73.367188 20.613281 L 1.632812 20.613281 C 0.730469 20.613281 0 19.640625 0 18.742188 C 0 17.84375 0.730469 16.871094 1.632812 16.871094 L 73.367188 16.871094 C 74.269531 16.871094 75 17.84375 75 18.742188 C 75 19.640625 74.269531 20.613281 73.367188 20.613281 Z M 73.367188 20.613281 " fill-rule="nonzero"/></g><path d="M 73.367188 39.339844 L 1.632812 39.339844 C 0.730469 39.339844 0 38.363281 0 37.464844 C 0 36.566406 0.730469 35.59375 1.632812 35.59375 L 73.367188 35.59375 C 74.269531 35.59375 75 36.566406 75 37.464844 C 75 38.363281 74.269531 39.339844 73.367188 39.339844 Z M 73.367188 39.339844 " fill-rule="nonzero"/><g clip-path="url(#7be881c3d5)"><path d="M 73.367188 58.0625 L 1.632812 58.0625 C 0.730469 58.0625 0 57.089844 0 56.1875 C 0 55.289062 0.730469 54.316406 1.632812 54.316406 L 73.367188 54.316406 C 74.269531 54.316406 75 55.289062 75 56.1875 C 75 57.089844 74.269531 58.0625 73.367188 58.0625 Z M 73.367188 58.0625 " fill-rule="nonzero"/></g></svg>