<svg xmlns="http://www.w3.org/2000/svg" xmlns:xlink="http://www.w3.org/1999/xlink" width="100" zoomAndPan="magnify" viewBox="0 0 75 74.999997" height="100" preserveAspectRatio="xMidYMid meet" version="1.0"><defs><clipPath id="50fc1e1c16"><path d="M 26.765625 26 L 48.515625 26 L 48.515625 49 L 26.765625 49 Z M 26.765625 26 " clip-rule="nonzero"/></clipPath><clipPath id="2ad503640c"><path d="M 26.765625 0 L 48.515625 0 L 48.515625 22 L 26.765625 22 Z M 26.765625 0 " clip-rule="nonzero"/></clipPath><clipPath id="5a34dac4b2"><path d="M 26.765625 53 L 48.515625 53 L 48.515625 75 L 26.765625 75 Z M 26.765625 53 " clip-rule="nonzero"/></clipPath></defs><g clip-path="url(#50fc1e1c16)"><path d="M 48.496094 37.5 C 48.496094 38.203125 48.425781 38.898438 48.285156 39.589844 C 48.148438 40.28125 47.941406 40.949219 47.667969 41.601562 C 47.394531 42.25 47.0625 42.867188 46.664062 43.453125 C 46.269531 44.039062 45.820312 44.578125 45.316406 45.074219 C 44.8125 45.574219 44.265625 46.019531 43.671875 46.410156 C 43.078125 46.800781 42.453125 47.128906 41.792969 47.398438 C 41.136719 47.667969 40.457031 47.871094 39.757812 48.007812 C 39.058594 48.144531 38.351562 48.214844 37.640625 48.214844 C 36.929688 48.214844 36.222656 48.144531 35.523438 48.007812 C 34.824219 47.871094 34.144531 47.667969 33.488281 47.398438 C 32.828125 47.128906 32.203125 46.800781 31.609375 46.410156 C 31.015625 46.019531 30.46875 45.574219 29.964844 45.074219 C 29.460938 44.578125 29.011719 44.039062 28.617188 43.453125 C 28.21875 42.867188 27.886719 42.25 27.613281 41.601562 C 27.339844 40.949219 27.132812 40.28125 26.996094 39.589844 C 26.855469 38.898438 26.785156 38.203125 26.785156 37.5 C 26.785156 36.796875 26.855469 36.101562 26.996094 35.410156 C 27.132812 34.71875 27.339844 34.050781 27.613281 33.398438 C 27.886719 32.75 28.21875 32.132812 28.617188 31.546875 C 29.011719 30.960938 29.460938 30.421875 29.964844 29.925781 C 30.46875 29.425781 31.015625 28.980469 31.609375 28.589844 C 32.203125 28.199219 32.828125 27.871094 33.488281 27.601562 C 34.144531 27.332031 34.824219 27.128906 35.523438 26.992188 C 36.222656 26.855469 36.929688 26.785156 37.640625 26.785156 C 38.351562 26.785156 39.058594 26.855469 39.757812 26.992188 C 40.457031 27.128906 41.136719 27.332031 41.792969 27.601562 C 42.453125 27.871094 43.078125 28.199219 43.671875 28.589844 C 44.265625 28.980469 44.8125 29.425781 45.316406 29.925781 C 45.820312 30.421875 46.269531 30.960938 46.664062 31.546875 C 47.0625 32.132812 47.394531 32.75 47.667969 33.398438 C 47.941406 34.050781 48.148438 34.71875 48.285156 35.410156 C 48.425781 36.101562 48.496094 36.796875 48.496094 37.5 Z M 48.496094 37.5 " fill-opacity="1" fill-rule="nonzero"/></g><g clip-path="url(#2ad503640c)"><path d="M 48.496094 10.714844 C 48.496094 11.417969 48.425781 12.113281 48.285156 12.804688 C 48.148438 13.496094 47.941406 14.164062 47.667969 14.816406 C 47.394531 15.464844 47.0625 16.082031 46.664062 16.667969 C 46.269531 17.25 45.820312 17.792969 45.316406 18.289062 C 44.8125 18.789062 44.265625 19.230469 43.671875 19.621094 C 43.078125 20.015625 42.453125 20.34375 41.792969 20.613281 C 41.136719 20.882812 40.457031 21.085938 39.757812 21.222656 C 39.058594 21.359375 38.351562 21.429688 37.640625 21.429688 C 36.929688 21.429688 36.222656 21.359375 35.523438 21.222656 C 34.824219 21.085938 34.144531 20.882812 33.488281 20.613281 C 32.828125 20.34375 32.203125 20.015625 31.609375 19.621094 C 31.015625 19.230469 30.46875 18.789062 29.964844 18.289062 C 29.460938 17.792969 29.011719 17.25 28.617188 16.667969 C 28.21875 16.082031 27.886719 15.464844 27.613281 14.816406 C 27.339844 14.164062 27.132812 13.496094 26.996094 12.804688 C 26.855469 12.113281 26.785156 11.417969 26.785156 10.714844 C 26.785156 10.011719 26.855469 9.3125 26.996094 8.625 C 27.132812 7.933594 27.339844 7.265625 27.613281 6.613281 C 27.886719 5.964844 28.21875 5.347656 28.617188 4.761719 C 29.011719 4.175781 29.460938 3.636719 29.964844 3.136719 C 30.46875 2.640625 31.015625 2.195312 31.609375 1.804688 C 32.203125 1.414062 32.828125 1.085938 33.488281 0.816406 C 34.144531 0.546875 34.824219 0.34375 35.523438 0.207031 C 36.222656 0.0703125 36.929688 0 37.640625 0 C 38.351562 0 39.058594 0.0703125 39.757812 0.207031 C 40.457031 0.34375 41.136719 0.546875 41.792969 0.816406 C 42.453125 1.085938 43.078125 1.414062 43.671875 1.804688 C 44.265625 2.195312 44.8125 2.640625 45.316406 3.136719 C 45.820312 3.636719 46.269531 4.175781 46.664062 4.761719 C 47.0625 5.347656 47.394531 5.964844 47.667969 6.613281 C 47.941406 7.265625 48.148438 7.933594 48.285156 8.625 C 48.425781 9.3125 48.496094 10.011719 48.496094 10.714844 Z M 48.496094 10.714844 " fill-opacity="1" fill-rule="nonzero"/></g><g clip-path="url(#5a34dac4b2)"><path d="M 48.496094 64.285156 C 48.496094 64.988281 48.425781 65.6875 48.285156 66.375 C 48.148438 67.066406 47.941406 67.734375 47.667969 68.386719 C 47.394531 69.035156 47.0625 69.652344 46.664062 70.238281 C 46.269531 70.824219 45.820312 71.363281 45.316406 71.863281 C 44.8125 72.359375 44.265625 72.804688 43.671875 73.195312 C 43.078125 73.585938 42.453125 73.914062 41.792969 74.183594 C 41.136719 74.453125 40.457031 74.65625 39.757812 74.792969 C 39.058594 74.929688 38.351562 75 37.640625 75 C 36.929688 75 36.222656 74.929688 35.523438 74.792969 C 34.824219 74.65625 34.144531 74.453125 33.488281 74.183594 C 32.828125 73.914062 32.203125 73.585938 31.609375 73.195312 C 31.015625 72.804688 30.46875 72.359375 29.964844 71.863281 C 29.460938 71.363281 29.011719 70.824219 28.617188 70.238281 C 28.21875 69.652344 27.886719 69.035156 27.613281 68.386719 C 27.339844 67.734375 27.132812 67.066406 26.996094 66.375 C 26.855469 65.6875 26.785156 64.988281 26.785156 64.285156 C 26.785156 63.582031 26.855469 62.886719 26.996094 62.195312 C 27.132812 61.503906 27.339844 60.835938 27.613281 60.183594 C 27.886719 59.535156 28.21875 58.917969 28.617188 58.332031 C 29.011719 57.75 29.460938 57.207031 29.964844 56.710938 C 30.46875 56.210938 31.015625 55.769531 31.609375 55.378906 C 32.203125 54.984375 32.828125 54.65625 33.488281 54.386719 C 34.144531 54.117188 34.824219 53.914062 35.523438 53.777344 C 36.222656 53.640625 36.929688 53.570312 37.640625 53.570312 C 38.351562 53.570312 39.058594 53.640625 39.757812 53.777344 C 40.457031 53.914062 41.136719 54.117188 41.792969 54.386719 C 42.453125 54.65625 43.078125 54.984375 43.671875 55.378906 C 44.265625 55.769531 44.8125 56.210938 45.316406 56.710938 C 45.820312 57.207031 46.269531 57.75 46.664062 58.332031 C 47.0625 58.917969 47.394531 59.535156 47.667969 60.183594 C 47.941406 60.835938 48.148438 61.503906 48.285156 62.195312 C 48.425781 62.886719 48.496094 63.582031 48.496094 64.285156 Z M 48.496094 64.285156 " fill-opacity="1" fill-rule="nonzero"/></g></svg>