<svg xmlns="http://www.w3.org/2000/svg" xmlns:xlink="http://www.w3.org/1999/xlink" width="100" zoomAndPan="magnify" viewBox="0 0 75 74.999997" height="100" preserveAspectRatio="xMidYMid meet" version="1.0"><path d="M 72.269531 43.367188 C 73.738281 43.367188 74.945312 42.160156 74.945312 40.691406 L 74.945312 34.222656 C 74.945312 32.75 73.738281 31.546875 72.269531 31.546875 L 69.492188 31.546875 C 68.019531 31.546875 66.460938 30.394531 66.027344 28.988281 L 63.65625 23.234375 C 62.960938 21.9375 63.246094 20.023438 64.285156 18.984375 L 66.25 17.019531 C 67.289062 15.976562 67.292969 14.273438 66.25 13.234375 L 61.675781 8.660156 C 60.636719 7.621094 58.933594 7.621094 57.894531 8.660156 L 55.925781 10.625 C 54.886719 11.667969 52.972656 11.949219 51.675781 11.25 L 45.921875 8.882812 C 44.515625 8.449219 43.367188 6.890625 43.367188 5.421875 L 43.367188 2.640625 C 43.367188 1.171875 42.160156 -0.03125 40.691406 -0.03125 L 34.222656 -0.03125 C 32.75 -0.03125 31.546875 1.171875 31.546875 2.640625 L 31.546875 5.421875 C 31.546875 6.890625 30.394531 8.449219 28.988281 8.882812 L 23.234375 11.25 C 21.9375 11.949219 20.023438 11.667969 18.984375 10.625 L 17.019531 8.660156 C 15.976562 7.617188 14.277344 7.617188 13.234375 8.660156 L 8.660156 13.234375 C 7.621094 14.273438 7.621094 15.976562 8.660156 17.015625 L 10.628906 18.984375 C 11.667969 20.023438 11.949219 21.9375 11.253906 23.234375 L 8.882812 28.988281 C 8.453125 30.394531 6.894531 31.542969 5.421875 31.542969 L 2.644531 31.542969 C 1.171875 31.542969 -0.03125 32.75 -0.03125 34.21875 L -0.03125 40.691406 C -0.03125 42.160156 1.171875 43.367188 2.644531 43.367188 L 5.421875 43.367188 C 6.894531 43.367188 8.453125 44.515625 8.882812 45.921875 L 11.253906 51.679688 C 11.953125 52.972656 11.671875 54.886719 10.628906 55.925781 L 8.660156 57.894531 C 7.621094 58.933594 7.621094 60.636719 8.660156 61.675781 L 13.234375 66.25 C 14.277344 67.292969 15.976562 67.289062 17.019531 66.25 L 18.988281 64.285156 C 20.027344 63.242188 21.9375 62.960938 23.234375 63.65625 L 28.988281 66.027344 C 30.394531 66.460938 31.546875 68.019531 31.546875 69.492188 L 31.546875 72.269531 C 31.546875 73.738281 32.75 74.945312 34.222656 74.945312 L 40.691406 74.945312 C 42.164062 74.945312 43.367188 73.738281 43.367188 72.269531 L 43.367188 69.488281 C 43.367188 68.019531 44.515625 66.460938 45.921875 66.027344 L 51.679688 63.65625 C 52.972656 62.960938 54.886719 63.242188 55.925781 64.285156 L 57.894531 66.25 C 58.933594 67.292969 60.636719 67.289062 61.675781 66.25 L 66.25 61.675781 C 67.292969 60.636719 67.292969 58.933594 66.25 57.894531 L 64.285156 55.925781 C 63.246094 54.886719 62.964844 52.972656 63.660156 51.675781 L 66.027344 45.921875 C 66.460938 44.515625 68.019531 43.367188 69.492188 43.367188 Z M 37.457031 52.878906 C 28.9375 52.878906 22.03125 45.972656 22.03125 37.457031 C 22.03125 28.9375 28.9375 22.03125 37.457031 22.03125 C 45.972656 22.03125 52.878906 28.9375 52.878906 37.457031 C 52.878906 45.972656 45.972656 52.878906 37.457031 52.878906 Z M 37.457031 52.878906 " fill-opacity="1" fill-rule="nonzero"/></svg>